<?xml version="1.0" standalone="no"?>
<!DOCTYPE svg PUBLIC "-//W3C//DTD SVG 20010904//EN"
 "http://www.w3.org/TR/2001/REC-SVG-20010904/DTD/svg10.dtd">
<svg version="1.0" xmlns="http://www.w3.org/2000/svg"
 width="64.000000pt" height="64.000000pt" viewBox="0 0 64.000000 64.000000"
 preserveAspectRatio="xMidYMid meet">

<g transform="translate(0.000000,64.000000) scale(0.100000,-0.100000)"
fill="#515151" stroke="none">
<path d="M120 580 c0 -13 -7 -20 -20 -20 -11 0 -29 -9 -40 -20 -19 -19 -20
-33 -20 -220 0 -187 1 -201 20 -220 19 -19 33 -20 240 -20 207 0 221 1 240 20
19 19 20 33 20 220 0 187 -1 201 -20 220 -11 11 -29 20 -40 20 -13 0 -20 7
-20 20 0 13 -7 20 -20 20 -13 0 -20 -7 -20 -20 0 -19 -7 -20 -140 -20 -133 0
-140 1 -140 20 0 13 -7 20 -20 20 -13 0 -20 -7 -20 -20z m0 -80 c0 -13 7 -20
20 -20 13 0 20 7 20 20 0 19 7 20 140 20 133 0 140 -1 140 -20 0 -13 7 -20 20
-20 14 0 20 7 20 21 0 14 5 19 18 17 12 -2 18 -14 20 -41 l3 -37 -220 0 -221
0 0 33 c0 19 3 37 7 40 13 14 33 6 33 -13z m398 -237 l-3 -138 -215 0 -215 0
-3 138 -3 137 221 0 221 0 -3 -137z"/>
<path d="M200 340 c0 -13 7 -20 20 -20 13 0 20 7 20 20 0 13 -7 20 -20 20 -13
0 -20 -7 -20 -20z"/>
<path d="M280 340 c0 -13 7 -20 20 -20 13 0 20 7 20 20 0 13 -7 20 -20 20 -13
0 -20 -7 -20 -20z"/>
<path d="M360 340 c0 -13 7 -20 20 -20 13 0 20 7 20 20 0 13 -7 20 -20 20 -13
0 -20 -7 -20 -20z"/>
<path d="M440 340 c0 -13 7 -20 20 -20 13 0 20 7 20 20 0 13 -7 20 -20 20 -13
0 -20 -7 -20 -20z"/>
<path d="M120 260 c0 -13 7 -20 20 -20 13 0 20 7 20 20 0 13 -7 20 -20 20 -13
0 -20 -7 -20 -20z"/>
<path d="M200 260 c0 -13 7 -20 20 -20 13 0 20 7 20 20 0 13 -7 20 -20 20 -13
0 -20 -7 -20 -20z"/>
<path d="M280 260 c0 -13 7 -20 20 -20 13 0 20 7 20 20 0 13 -7 20 -20 20 -13
0 -20 -7 -20 -20z"/>
<path d="M360 260 c0 -13 7 -20 20 -20 13 0 20 7 20 20 0 13 -7 20 -20 20 -13
0 -20 -7 -20 -20z"/>
<path d="M440 260 c0 -13 7 -20 20 -20 13 0 20 7 20 20 0 13 -7 20 -20 20 -13
0 -20 -7 -20 -20z"/>
<path d="M120 180 c0 -13 7 -20 20 -20 13 0 20 7 20 20 0 13 -7 20 -20 20 -13
0 -20 -7 -20 -20z"/>
<path d="M200 180 c0 -13 7 -20 20 -20 13 0 20 7 20 20 0 13 -7 20 -20 20 -13
0 -20 -7 -20 -20z"/>
<path d="M280 180 c0 -13 7 -20 20 -20 13 0 20 7 20 20 0 13 -7 20 -20 20 -13
0 -20 -7 -20 -20z"/>
</g>
</svg>
